<svg xmlns="http://www.w3.org/2000/svg" version="1.1" xmlns:xlink="http://www.w3.org/1999/xlink" xmlns:svgjs="http://svgjs.dev/svgjs" width="1500" height="1500" viewBox="0 0 1500 1500"><rect width="1500" height="1500" fill="#ffffff"></rect><g transform="matrix(0.6666666666666666,0,0,0.6666666666666666,250.69954678648025,264.3935222672065)"><svg viewBox="0 0 254 247" data-background-color="#ffffff" preserveAspectRatio="xMidYMid meet" height="1458" width="1500" xmlns="http://www.w3.org/2000/svg" xmlns:xlink="http://www.w3.org/1999/xlink"><g id="tight-bounds" transform="matrix(1,0,0,1,-0.17768488376597702,-0.09999999999999432)"><svg viewBox="0 0 254.35536976753195 247.2" height="247.2" width="254.35536976753195"><g><svg viewBox="0 0 395.52 384.3934731527752" height="247.2" width="254.35536976753195"><g transform="matrix(1,0,0,1,0,237.57058750973994)"><svg viewBox="0 0 395.52 146.82288564303525" height="146.82288564303525" width="395.52"><g id="textblocktransform"><svg viewBox="0 0 395.52 146.82288564303525" height="146.82288564303525" width="395.52" id="textblock"><g><svg viewBox="0 0 395.52 146.82288564303525" height="146.82288564303525" width="395.52"><g transform="matrix(1,0,0,1,0,0)"><svg width="395.52" viewBox="2.5 -37.5 140.34 52.1" height="146.82288564303525" data-palette-color="#0d6efd"><path d="M16.6-37.5Q22.2-37.5 26.35-35.23 30.5-32.95 32.77-28.65 35.05-24.35 35.05-18.45L35.05-18.45Q35.05-12.8 32.63-8.63 30.2-4.45 25.88-2.23 21.55 0 16 0L16 0 2.5 0 2.5-0.95Q2.85-0.95 3.23-1.1 3.6-1.25 3.6-1.5L3.6-1.5 3.6-36Q3.6-36.25 3.23-36.4 2.85-36.55 2.5-36.55L2.5-36.55 2.5-37.5 16.6-37.5ZM10.15-5.9L15.05-5.9Q19.4-5.9 22.48-7.48 25.55-9.05 27.13-11.9 28.7-14.75 28.7-18.55L28.7-18.55Q28.7-24.5 25.5-28.05 22.3-31.6 15.65-31.6L15.65-31.6 10.15-31.6 10.15-5.9ZM65.9-23L65.9-22.05Q65.55-22.05 65.17-21.9 64.8-21.75 64.8-21.5L64.8-21.5 64.8-1.5Q64.8-1.25 65.17-1.1 65.55-0.95 65.9-0.95L65.9-0.95 65.9 0 58.5 0 58.5-2.75Q55.35 0.65 50.55 0.65L50.55 0.65Q46.9 0.65 44.12-0.83 41.35-2.3 39.82-5.05 38.3-7.8 38.3-11.45L38.3-11.45Q38.3-15 39.97-17.78 41.65-20.55 44.45-22.08 47.25-23.6 50.55-23.6L50.55-23.6Q55.35-23.6 58.5-19.9L58.5-19.9 58.5-23 65.9-23ZM51.3-4.65Q53.35-4.65 54.97-5.58 56.6-6.5 57.5-8.03 58.4-9.55 58.4-11.3L58.4-11.3Q58.4-14.3 56.42-16.25 54.45-18.2 51.3-18.2L51.3-18.2Q48.25-18.2 46.27-16.3 44.3-14.4 44.3-11.45L44.3-11.45Q44.3-8.35 46.32-6.5 48.35-4.65 51.3-4.65L51.3-4.65ZM71.65-36Q71.65-36.25 71.27-36.4 70.9-36.55 70.5-36.55L70.5-36.55 70.5-37.5 79.3-37.5 79.3-36.55Q78.9-36.55 78.52-36.4 78.15-36.25 78.15-36L78.15-36 78.15-1.5Q78.15-1.25 78.52-1.1 78.9-0.95 79.3-0.95L79.3-0.95 79.3 0 70.5 0 70.5-0.95Q70.9-0.95 71.27-1.1 71.65-1.25 71.65-1.5L71.65-1.5 71.65-36ZM110.94-23L110.94-22.05Q110.59-22.05 110.22-21.9 109.84-21.75 109.84-21.5L109.84-21.5 109.84-1.5Q109.84-1.25 110.22-1.1 110.59-0.95 110.94-0.95L110.94-0.95 110.94 0 103.54 0 103.54-2.75Q100.39 0.65 95.59 0.65L95.59 0.65Q91.94 0.65 89.17-0.83 86.39-2.3 84.87-5.05 83.34-7.8 83.34-11.45L83.34-11.45Q83.34-15 85.02-17.78 86.69-20.55 89.49-22.08 92.29-23.6 95.59-23.6L95.59-23.6Q100.39-23.6 103.54-19.9L103.54-19.9 103.54-23 110.94-23ZM96.34-4.65Q98.39-4.65 100.02-5.58 101.64-6.5 102.54-8.03 103.44-9.55 103.44-11.3L103.44-11.3Q103.44-14.3 101.47-16.25 99.49-18.2 96.34-18.2L96.34-18.2Q93.29-18.2 91.32-16.3 89.34-14.4 89.34-11.45L89.34-11.45Q89.34-8.35 91.37-6.5 93.39-4.65 96.34-4.65L96.34-4.65ZM142.84-23L142.84-22.05Q141.79-22.05 141.54-21.65L141.54-21.65 124.04 12.8Q123.99 12.85 123.99 12.95L123.99 12.95Q123.99 13.25 124.34 13.45 124.69 13.65 125.24 13.65L125.24 13.65 125.24 14.6 115.84 14.6 115.84 13.65Q116.89 13.65 117.14 13.25L117.14 13.25 125.29-2.8 115.04-21.7Q114.84-22.05 113.74-22.05L113.74-22.05 113.74-23 122.99-23 122.99-22.05Q122.39-22.05 122.27-21.8 122.14-21.55 122.34-21.25L122.34-21.25 128.69-9.5 134.64-21.2Q134.69-21.25 134.69-21.35L134.69-21.35Q134.69-21.65 134.34-21.85 133.99-22.05 133.44-22.05L133.44-22.05 133.44-23 142.84-23Z" opacity="1" transform="matrix(1,0,0,1,0,0)" fill="#0d6efd" class="wordmark-text-0" data-fill-palette-color="primary" id="text-0"></path></svg></g></svg></g></svg></g></svg></g><g transform="matrix(1,0,0,1,114.13990869272368,0)"><svg viewBox="0 0 167.24018261455262 202.90922795867473" height="202.90922795867473" width="167.24018261455262"><g><svg xmlns:rdf="http://www.w3.org/1999/02/22-rdf-syntax-ns#" xmlns:cc="http://creativecommons.org/ns#" xmlns:svg="http://www.w3.org/2000/svg" xmlns:dc="http://purl.org/dc/elements/1.1/" xmlns="http://www.w3.org/2000/svg" xmlns:xlink="http://www.w3.org/1999/xlink" version="1.1" x="0" y="0" viewBox="11.810999999999998 8.057752619322565 68.315 82.88524738067744" enable-background="new 0 0 100 100" xml:space="preserve" height="202.90922795867473" width="167.24018261455262" class="icon-icon-0" data-fill-palette-color="accent" id="icon-0"><path fill="#919090" d="M78.529 8.755c-1.009-0.707-2.274-0.892-3.433-0.483L32.979 23.024c-1.512 0.538-2.527 1.955-2.527 3.563V66.04c-1.695-0.788-3.561-1.279-5.55-1.279-7.219 0-13.091 5.878-13.091 13.093 0 7.219 5.872 13.089 13.091 13.089 7.219 0 13.091-5.87 13.091-13.089 0-0.057-0.014-0.104-0.014-0.151 0-0.047 0.027-0.089 0.027-0.136V29.263l34.557-12.096v33.837c-1.689-0.791-3.546-1.266-5.53-1.266-7.218 0-13.089 5.87-13.089 13.09 0 7.211 5.871 13.091 13.089 13.091 7.221 0 13.093-5.88 13.093-13.091V11.841C80.125 10.608 79.527 9.47 78.529 8.755zM24.901 83.388c-3.052 0-5.53-2.483-5.53-5.534 0-3.059 2.479-5.538 5.53-5.538 3.051 0 5.537 2.479 5.537 5.538C30.438 80.904 27.952 83.388 24.901 83.388zM67.032 68.357c-3.052 0-5.544-2.484-5.544-5.529s2.492-5.531 5.544-5.531 5.53 2.486 5.53 5.531S70.084 68.357 67.032 68.357z" data-fill-palette-color="accent"></path></svg></g></svg></g><g></g></svg></g><defs></defs></svg><rect width="254.35536976753195" height="247.2" fill="none" stroke="none" visibility="hidden"></rect></g></svg></g></svg>